<?xml version="1.0" encoding="utf-8"?>
<!-- Generator: Adobe Illustrator 28.1.0, SVG Export Plug-In . SVG Version: 6.00 Build 0)  -->
<svg version="1.1" id="Capa_1" xmlns="http://www.w3.org/2000/svg" xmlns:xlink="http://www.w3.org/1999/xlink" x="0px" y="0px"
	 viewBox="0 0 287.64 132.58" style="enable-background:new 0 0 287.64 132.58;" xml:space="preserve">
<style type="text/css">
	.st0{fill:#DE2329;stroke:#000000;stroke-linecap:round;stroke-linejoin:round;stroke-miterlimit:10;}
	.st1{fill:#DE2329;stroke:#000000;stroke-miterlimit:10;}
	.st2{fill:#148F46;stroke:#000000;stroke-miterlimit:10;}
	.st3{fill:#E7E624;}
	.st4{stroke:#000000;stroke-miterlimit:10;}
	.st5{fill:#EAEAEA;}
	.st6{fill:#F4F4F4;}
	.st7{fill:#E4E4E4;}
	.st8{fill:#D0D0D0;}
	.st9{fill:#C9C9C9;}
	.st10{fill:#CFCFCF;}
	.st11{fill:#ABABAB;}
	.st12{fill:#F6F6F6;}
	.st13{fill:#F3F3F3;}
	.st14{fill:#C8C8C8;}
	.st15{fill:#DBDBDB;}
	.st16{fill:#C1C1C1;}
	.st17{fill:#F0F0F0;}
	.st18{fill:#EDEDED;}
	.st19{fill:#8D8D8D;}
	.st20{fill:#ADADAD;}
	.st21{fill:#D4D4D4;}
</style>
<g>
	<path class="st0" d="M59.89,64.28c2.07-3.63,4.19-7.08,6.07-10.56c2.54-4.76,5.04-8.97,7.58-12.53c2.5-3.6,5.35-5.96,8.52-7.08
		c3.88-1.16,6.87-1.16,9.01-0.04c-2.67,2.79-5.22,5.56-7.63,8.42c-3.11,3.7-5.97,7.57-8.52,11.88c-2.81,4.72-5.53,9.59-8.16,14.62
		c-0.54,1.04-1.12,2.05-1.61,3.02c-2.41,5.34-4.91,10.13-7.58,14.31c-2.68,4.18-5.66,7.54-8.96,10.1c-2.9,2.28-6.2,3.91-9.9,4.87
		c-3.7,0.93-7.85,0.74-12.49-0.58l10.21-17.45c5.98-11.53,9.14-20.73,9.54-27.62s-2.01-10.91-7.14-11.99
		c-5.7-0.99-11.48,0.99-16.64,3.23c-1.23,0.54-13.62,5.63-13.6,6.4c-0.13-3.83,1.07-7.62,3.57-11.33c2.5-3.71,6.42-6.77,11.78-9.13
		c2.85-1.51,6.42-2.4,10.75-2.71c4.55-0.27,8.7,0.46,12.4,2.2c3.7,1.74,6.33,4.68,7.98,8.78c1.61,4.1,3.14,8.85,1.49,15.66
		c-1.69,6.77-4.68,16.57-10.84,26.39C45.73,83.17,53.24,75.94,59.89,64.28z"/>
	<path class="st1" d="M105.31,64.44c0.44-0.1,0.8-0.16,1.15-0.14c0.31,0.04,0.45,0.15,0.44,0.36c-0.01,0.09-0.06,0.32-0.1,0.71
		c-0.11,1.13-0.4,3.01-0.95,5.66c-0.54,2.69-1.5,5.63-2.85,8.91c-1.37,3.24-3.3,6.29-5.87,9.18c-2.53,2.88-5.85,5.12-9.94,6.67
		c-4.82,1.64-8.67,1.55-11.51-0.21c-2.86-1.79-4.78-4.6-5.71-8.4c-0.99-3.82-1-7.95-0.1-12.46c0.86-4.49,2.68-8.63,5.35-12.44
		c2.69-3.78,6.22-6.57,10.63-8.29c2.91-1.03,5.39-1.21,7.48-0.56c2.08,0.61,3.68,1.79,4.76,3.48c1.09,1.73,1.51,3.69,1.3,5.86
		c-0.37,3.08-1.59,5.63-3.63,7.72c-2.05,2.05-4.38,3.55-7.03,4.48c-2.67,0.89-5.16,1.16-7.51,0.74c0.24,2.45,0.96,4.46,2.16,5.97
		c1.16,1.53,2.81,2.15,4.98,1.8c2.83-0.62,5.31-1.97,7.46-4.02c2.19-2.07,3.97-4.43,5.39-7.06c1.47-2.65,2.52-5.13,3.23-7.51
		C104.59,64.69,104.92,64.55,105.31,64.44z M82.21,66.65c-0.87,2.45-1.25,5.07-1.11,7.86c3.37-2.6,5.55-4.91,6.55-6.95
		c0.99-2.04,1.26-3.61,0.82-4.69c-0.48-1.06-1.21-1.43-2.19-1.11C84.47,62.54,83.12,64.18,82.21,66.65z"/>
	<path class="st1" d="M146.46,71.94c0.22,0,0.49,0.04,0.76,0.08c0.27,0.08,0.54,0.19,0.71,0.31c0.13,0.12,0.22,0.27,0.13,0.43
		c-1.07,2.44-2.63,5.26-4.68,8.51s-4.46,6.11-7.23,8.55c-2.81,2.44-5.84,3.71-9.14,3.75c-3.92-0.19-6.24-1.78-6.96-4.72
		c-0.67-2.94-0.27-6.61,1.25-11.06c1.52-4.41,3.57-8.94,6.16-13.58c-2.32,0.7-4.91,0.89-7.76,0.66c-0.89,2.44-2.59,6.54-5.08,12.22
		c-2.45,5.69-5.22,11.22-8.3,16.59l-9.77-0.12c5.75-7.97,9.9-14.66,12.49-20.04c2.54-5.38,4.01-8.86,4.42-10.48
		c-1.83-1.01-2.99-2.55-3.48-4.68c-0.49-2.13-0.31-4.14,0.58-6.03c0.85-1.86,2.45-2.94,4.73-3.21c2.45-0.15,4.37,0.73,5.84,2.63
		c1.43,1.93,1.56,4.8,0.31,8.59c1.83,0.43,3.66,0.35,5.58-0.31c1.92-0.66,3.66-1.86,5.17-3.67l11.91,0.08
		c-3.08,4.25-5.53,8.35-7.27,12.22c-1.78,3.87-2.85,7.12-3.26,9.63c-0.36,2.55-0.04,3.98,0.94,4.25c0.98,0.08,2.32-0.58,3.92-1.97
		c1.65-1.39,3.17-2.94,4.64-4.64s2.45-2.98,2.94-3.83C146.05,71.98,146.19,71.94,146.46,71.94z"/>
	<path class="st2" d="M178.34,64.87c0.4-0.07,0.76-0.13,1.11-0.09c0.35,0.03,0.49,0.15,0.47,0.36c-0.06,0.1-0.07,0.32-0.15,0.72
		c-0.1,1.11-0.48,3-1.09,5.63c-0.6,2.67-1.64,5.59-3.07,8.83c-1.41,3.19-3.46,6.2-6.06,9.02c-2.64,2.83-6.02,4.99-10.15,6.44
		c-4.86,1.52-8.66,1.32-11.5-0.49c-2.81-1.87-4.61-4.7-5.49-8.5c-0.85-3.86-0.76-7.99,0.21-12.46c1.02-4.45,2.89-8.56,5.66-12.31
		c2.78-3.71,6.38-6.41,10.86-8.08c4-1.28,7.18-1.21,9.52,0.3c2.37,1.46,3.35,3.9,2.95,7.24c-0.44,2.73-1.48,5-3.14,6.79
		c-1.66,1.79-3.45,3.1-5.37,3.83c-1.92,0.73-3.53,0.89-4.79,0.46c1.27-1.81,2.1-3.62,2.44-5.36c0.34-1.74,0.37-3.16,0.05-4.24
		c-0.32-1.08-0.8-1.47-1.47-1.22c-1.74,0.83-3.11,2.47-4.05,4.9c-0.94,2.43-1.4,4.96-1.39,7.74c0.04,2.72,0.63,5.02,1.75,6.83
		c1.13,1.84,2.87,2.63,5.23,2.31c2.89-0.56,5.4-1.86,7.6-3.85c2.2-2,4.03-4.31,5.57-6.93c1.49-2.6,2.61-5.05,3.38-7.42
		C177.62,65.11,177.95,64.98,178.34,64.87z"/>
	<path class="st2" d="M224.95,71.98c0.31,0.04,0.62,0.12,0.89,0.23c0.31,0.12,0.45,0.27,0.45,0.43c-0.45,1.32-1.43,3.21-2.85,5.73
		c-1.47,2.48-3.3,4.99-5.58,7.58c-2.23,2.55-4.82,4.64-7.67,6.19c-2.9,1.55-6.07,2.05-9.41,1.51c-3.26-0.7-4.91-2.2-5.04-4.53
		c-0.09-2.32,0.62-4.95,2.19-7.85c1.52-2.9,3.17-5.65,4.86-8.16c1.12-1.66,1.96-3.06,2.59-4.18c0.62-1.12,0.76-1.78,0.4-2.01
		c-1.47-0.5-4.1,1.62-7.98,6.46c-3.88,4.84-7.63,11.45-11.24,19.88l-14.36,0.12c2.45-7.97,5.13-15.43,8.07-22.44
		c2.99-7,5.84-13.23,8.56-18.61c2.62-5.17,4.1-7.88,6.9-12.96c1.88-3.39,8.34-4.45,11.66-4.47c1-0.01,6.97,0.71,7.62-0.05
		c0,0-2.23,2.71-3.7,4.53c-1.47,1.82-1.87,2.55-4.15,5.8c-2.32,3.29-4.73,7.12-7.23,11.53c-2.54,4.41-4.91,9.24-7.14,14.47
		c2.54-3.6,5.26-6.69,8.25-9.28c2.99-2.55,6.16-4.33,9.54-5.26c2.54-0.66,4.73-0.62,6.56,0c1.87,0.66,3.08,1.86,3.66,3.6
		c0.58,1.74,0.18,3.95-1.21,6.58c-0.27,0.46-0.49,0.93-0.76,1.39c-1.34,2.48-2.59,4.83-3.7,7.04c-1.16,2.24-1.92,4.1-2.27,5.53
		c-0.4,1.39-0.18,2.13,0.71,2.17c1.03,0.04,2.41-0.73,4.19-2.36c1.74-1.59,3.88-4.45,6.47-8.51
		C224.37,71.98,224.59,71.94,224.95,71.98z"/>
	<path class="st2" d="M246.35,71.94c0.27,0,0.49,0.04,0.8,0.08c0.27,0.08,0.49,0.19,0.67,0.31c0.18,0.12,0.22,0.27,0.13,0.43
		c-1.07,2.44-2.63,5.26-4.68,8.51c-2.01,3.25-4.42,6.11-7.23,8.55c-2.77,2.44-5.8,3.71-9.1,3.75c-3.57-0.15-5.8-1.47-6.69-3.91
		c-0.89-2.44-0.8-5.53,0.22-9.32c1.03-3.79,2.59-7.81,4.73-12.03c2.14-4.22,4.42-8.2,6.87-11.95l11.95,0.08
		c-3.12,4.25-5.53,8.35-7.31,12.22c-1.74,3.87-2.81,7.12-3.21,9.63c-0.4,2.55-0.09,3.98,0.94,4.25c0.98,0.08,2.27-0.58,3.92-1.97
		c1.61-1.39,3.17-2.94,4.64-4.64s2.41-2.98,2.9-3.83C245.99,71.98,246.13,71.94,246.35,71.94z"/>
	<path class="st2" d="M277.57,72.18c0.27-0.04,0.54,0,0.76,0.08c0.27,0.04,0.4,0.19,0.4,0.39c0.04,1.28-0.49,3.37-1.56,6.31
		c-1.07,2.9-2.94,5.84-5.62,8.86c-2.72,2.98-6.42,5.18-11.24,6.69c-2.9,1.01-5.8,1.24-8.7,0.73c-2.9-0.5-5.17-1.59-6.82-3.25
		c-1.43-1.62-2.23-3.29-2.45-5.03c-0.22-1.7-0.13-3.09,0.36-4.1c-0.4,0.35-0.89,0.46-1.47,0.35c-0.58-0.08-1.07-0.35-1.34-0.81
		c-0.31-0.46-0.27-1.12,0.22-1.93c3.17-3.91,5.84-7.7,8.03-11.37c1.74-2.82,3.43-5.34,5.17-7.54c1.7-2.2,3.66-3.95,5.89-5.18
		c1.78-0.85,3.52-1.2,5.17-1.04c1.69,0.15,2.85,0.39,3.61,0.73c0.22,0.12,0.31,0.27,0.31,0.46c-0.04,0.15-0.18,0.27-0.4,0.35
		c-0.27,0.04-0.71,0.19-1.34,0.46c-0.62,0.27-1.21,0.7-1.65,1.35c-0.49,0.62-0.62,1.51-0.49,2.63c0.31,1.28,0.85,2.79,1.65,4.56
		c1.03,2.17,1.96,4.72,2.72,7.66c0.8,2.9,0.94,6.23,0.4,9.98v0.04c-0.04,0.04-0.04,0.08-0.04,0.08c1.56-1.24,3.03-2.75,4.37-4.6
		c1.38-1.82,2.54-4.02,3.48-6.58C277.08,72.29,277.3,72.21,277.57,72.18z M257.28,79.37c0.71-1.82,0.89-4.06,0.49-6.69
		c-0.27-1.78-0.58-3.17-0.94-4.22s-0.67-1.82-0.94-2.28c-0.31-0.46-0.45-0.7-0.45-0.7s-0.67,1.01-1.96,2.98
		c-1.34,1.97-2.94,4.49-4.77,7.62c-0.67,2.67-0.4,4.53,0.71,5.49c1.16,0.97,2.41,1.31,3.83,1.08
		C255.22,82.35,256.56,81.23,257.28,79.37z"/>
</g>
<path class="st1" d="M233.79,47.95c-1.9-1.6-2.61-3.55-2.26-5.92c0.48-2.32,1.96-4.27,4.39-5.87c2.43-1.59,5.22-2.42,8.31-2.42
	c3.09,0,5.58,0.82,7.42,2.42c1.84,1.6,2.61,3.55,2.26,5.87c-0.48,2.37-1.96,4.32-4.39,5.92c-2.43,1.59-5.22,2.37-8.31,2.37
	C238.13,50.31,235.63,49.54,233.79,47.95z"/>
<g>
	<path class="st3" d="M235.06,20.53c0,0-7.22-0.3-6.77,3.15l0.43,8.38c0,0-12.36,4.45-13.02,9.04c0,0-0.91,1.73,16.44,0.45
		c0,0,28.27,0.31,38.99-11.7c0,0,4.88-7.67-4.77-7.79c0,0-7.45,0.49-11.1,1.98c0,0-7.83-10.03-8.74-8.2
		C246.52,15.85,249.64,19.39,235.06,20.53z"/>
	<g id="l12mxV_00000109020874091496122370000016989477715878327992_">
		<g>
			<path class="st4" d="M259.6,36.95c0.66-0.21,1.32-0.41,1.98-0.64c0.74-0.26,1.48-0.53,2.21-0.8c0.82-0.3,1.59-0.71,2.35-1.13
				c0.49-0.37,0.99-0.72,1.47-1.11c1.05-0.85,2.16-1.64,3.12-2.61c0.98-0.98,1.74-2.1,2.24-3.39c0.32-0.82,0.44-1.69,0.28-2.58
				c-0.24-1.28-0.94-2.19-2.14-2.71c-0.95-0.42-1.96-0.62-2.99-0.71c-1.53-0.12-3.05-0.03-4.57,0.17c-1.12,0.15-2.25,0.3-3.35,0.55
				c-1.15,0.26-2.3,0.52-3.43,0.88c-0.28,0.09-0.55,0.19-0.82,0.3c-0.16,0.07-0.25,0.03-0.35-0.1c-0.67-0.86-1.34-1.73-2.03-2.58
				c-0.91-1.1-1.72-2.28-2.65-3.37c-0.76-0.88-1.58-1.7-2.64-2.21c-0.94-0.46-1.93-0.77-3.01-0.61c-1.07,0.16-2.06,0.55-2.99,1.1
				c-0.99,0.59-1.82,1.37-2.7,2.08c-0.4,0.32-0.75,0.67-1.06,1.07c-0.13,0.16-0.25,0.33-0.26,0.55c0,0.09-0.08,0.08-0.13,0.09
				c-0.33,0.04-0.65,0.07-0.98,0.11c-1.43,0.15-2.85,0.34-4.27,0.56c-0.76,0.12-1.48,0.35-2.18,0.65c-0.35,0.15-0.71,0.26-1.02,0.49
				c-0.3,0.22-0.55,0.48-0.76,0.81c-0.55,0.87-0.6,1.82-0.54,2.8c0.03,0.21,0.19,0.38,0.23,0.59c0.01,0.06,0.09,0.1,0.15,0.08
				c0.1-0.04,0.26-0.01,0.29-0.15c0.04-0.23,0.17-0.48,0-0.7c-0.16-0.2-0.16-0.43-0.22-0.65c-0.06-0.22-0.03-0.45-0.02-0.67
				c0.01-0.14,0.08-0.25,0.22-0.3c0.27,0.02,0.45-0.16,0.43-0.45c-0.01-0.1,0.01-0.19,0.01-0.29c0-0.09,0.04-0.16,0.13-0.2
				c0.06-0.02,0.1-0.06,0.15-0.1c0.49-0.46,1.08-0.73,1.73-0.9c0.88-0.22,1.77-0.39,2.67-0.51c1.62-0.22,3.24-0.32,4.86-0.51
				c0.8-0.09,1.58-0.26,2.37-0.4c0.15-0.03,0.3-0.03,0.45-0.08c0.86-0.2,1.72-0.38,2.57-0.63c0.69-0.2,1.34-0.47,1.97-0.81
				c0.4-0.22,0.75-0.52,1.01-0.9c0.27-0.4,0.32-0.83,0.22-1.29c-0.01-0.07-0.07-0.15,0.01-0.2c0.07-0.05,0.14,0.01,0.2,0.04
				c0.43,0.2,0.8,0.49,1.15,0.8c0.72,0.64,1.38,1.33,1.98,2.09c0.09,0.13,0.21,0.24,0.33,0.34c0.34,0.4,0.7,0.79,1.02,1.21
				c0.29,0.38,0.3,0.45-0.05,0.79c-0.53,0.5-1.1,0.93-1.68,1.36c-0.06,0.04-0.12,0.08-0.16,0.15c0,0.1-0.11,0.2-0.02,0.31
				c0.08,0.09,0.18,0,0.27,0.02c0.07,0.01,0.13,0.03,0.19-0.01c0.62-0.41,1.21-0.88,1.8-1.34c0.42-0.33,0.45-0.33,0.78,0.08
				c0.41,0.51,0.84,1,1.26,1.49c0.11,0.13,0.29,0.22,0.34,0.41c0.18,0.16,0.31,0.35,0.47,0.53c0.11,0.12,0.14,0.29,0.29,0.37
				c0.04,0.01,0.09,0.02,0.12-0.02c0.11-0.16,0.27-0.2,0.45-0.21c0.05-0.18,0.2-0.21,0.35-0.22c0.1,0,0.18-0.01,0.26-0.07
				c0.15-0.12,0.33-0.18,0.52-0.19c0.02,0,0.04,0,0.05-0.01c0.25-0.13,0.53-0.1,0.78-0.2c0.22-0.09,0.47-0.11,0.67-0.2
				c0.28-0.13,0.56-0.13,0.84-0.19c0.29-0.06,0.57-0.18,0.86-0.23c0.22-0.04,0.45-0.16,0.69-0.05c0.08,0.03,0.17,0.01,0.25-0.03
				c0.24-0.12,0.51-0.15,0.78-0.15c0.15-0.01,0.31,0.03,0.47-0.02c0.71-0.17,1.43-0.24,2.16-0.3c0.18-0.02,0.36-0.03,0.54-0.05
				c0.22-0.13,0.45-0.14,0.7-0.14c0.26-0.01,0.53-0.07,0.79-0.04c0.14,0.01,0.28,0.01,0.41,0.04c0.27,0.06,0.55,0.04,0.82,0.13
				c0.55,0.05,1.08,0.2,1.61,0.35c0.26,0.07,0.52,0.17,0.77,0.27c0.2,0.09,0.39,0.19,0.53,0.37c0.36,0.21,0.63,0.52,0.85,0.86
				c0.4,0.61,0.47,1.29,0.44,1.99c-0.03,0.69-0.23,1.34-0.5,1.97c-0.02,0.05-0.05,0.1-0.11,0.12c-0.09,0.04-0.11,0.14-0.16,0.22
				c-0.56,1.05-1.28,1.97-2.21,2.72c-0.5,0.4-0.94,0.86-1.45,1.24c-0.65,0.48-1.33,0.89-2.03,1.28c-1.89,1.02-3.79,2.04-5.83,2.77
				c-0.15,0.05-0.28,0.12-0.39,0.25c-0.08,0.09-0.19,0.18-0.34,0.12c-0.06-0.03-0.12,0-0.17,0.04c-0.14,0.1-0.32,0.15-0.47,0.22
				c-0.09,0.05-0.21,0.05-0.29,0.09c-0.23,0.14-0.5,0.14-0.73,0.25c-0.02,0.01-0.04,0.03-0.06,0.04c-0.08,0.02-0.18,0.03-0.19,0.14
				c-0.01,0.11,0.07,0.18,0.16,0.23c0.03,0.02,0.06,0.04,0.09,0.06c0.04,0.01,0.08,0,0.12-0.01c0.06-0.02,0.08-0.07,0.1-0.12
				c0.02-0.05,0.05-0.08,0.09-0.06c0.13,0.05,0.21-0.02,0.29-0.09c0.09-0.07,0.16-0.07,0.25,0c0.02,0,0.04,0,0.06-0.01
				c0.13-0.07,0.22-0.21,0.4-0.18c0.02-0.01,0.04-0.01,0.05-0.02C259.28,37.06,259.41,36.92,259.6,36.95z"/>
			<path class="st4" d="M217.8,41.92c0.85,0.01,1.7,0.02,2.55-0.03c0.62-0.04,1.25-0.06,1.87-0.08c0.19-0.16,0.19-0.28-0.03-0.4
				c-0.04-0.02-0.07-0.05-0.09-0.08c-0.02-0.05-0.06-0.08-0.11-0.08c-0.46-0.01-0.93-0.04-1.39-0.02c-0.32,0.22-0.68,0.1-1.02,0.12
				c-0.54,0.02-1.07-0.04-1.6-0.1c-0.62-0.07-1.05-0.42-1.31-0.98c-0.07-0.16-0.06-0.32-0.01-0.48c0.13-0.37,0.34-0.7,0.57-1.01
				c0.37-0.5,0.85-0.87,1.35-1.23c0.41-0.3,0.8-0.62,1.23-0.89c0.31-0.2,0.62-0.39,0.93-0.58c0.28-0.17,0.54-0.35,0.83-0.5
				c0.27-0.14,0.51-0.33,0.81-0.43c0.16-0.05,0.3-0.15,0.45-0.24c0.48-0.3,0.99-0.54,1.49-0.8c0.29-0.15,0.59-0.31,0.88-0.46
				c0.49-0.26,1-0.46,1.52-0.65c0.62-0.28,1.25-0.54,1.85-0.85c0.14-0.07,0.29-0.08,0.43-0.13c0.15-0.07,0.32-0.09,0.46-0.19
				c0.04-0.08,0.04-0.17,0.03-0.26c-0.02-0.34-0.09-0.68-0.09-1.03c0-0.1-0.01-0.2,0.1-0.25c0.02-0.01,0,0,0.02-0.01
				c0.29-0.21,0.29-0.21,0.02-0.45c-0.07-0.04-0.08-0.11-0.1-0.19c-0.08-0.49-0.09-0.98-0.14-1.47c-0.01-0.1,0.01-0.17,0.14-0.14
				c0.04,0.01,0.07-0.01,0.1-0.03c0.12-0.09,0.09-0.22,0.1-0.34c-0.09-0.17-0.21-0.33-0.31-0.49c-0.15-0.24-0.21-0.49-0.22-0.76
				c-0.01-0.14-0.02-0.28-0.04-0.42c-0.04-0.09-0.11-0.15-0.12-0.27c-0.01-0.13-0.14-0.21-0.27-0.22c-0.11-0.01-0.26-0.09-0.33,0.09
				c0.01,0.54,0.06,1.08,0.11,1.62c0.09,0.95,0.19,1.9,0.25,2.85c0.02,0.38,0.04,0.75,0.07,1.13c0.01,0.17-0.05,0.25-0.21,0.31
				c-1.85,0.7-3.66,1.49-5.42,2.39c-2.06,1.05-4.01,2.27-5.68,3.9c-0.46,0.45-0.97,0.88-1.28,1.46c-0.11,0.2-0.21,0.41-0.3,0.62
				c-0.05,0.12-0.07,0.25-0.06,0.37c0.08,0.68,0.38,1.21,1.06,1.47C217.2,41.8,217.5,41.85,217.8,41.92z"/>
			<path d="M228.37,25.57c0.11-0.04,0.23-0.01,0.34,0.01c0.11,0.02,0.22,0.08,0.2,0.23c-0.01,0.08,0.05,0.13,0.08,0.2
				c0.09-0.01,0.1-0.08,0.1-0.15c0.01-0.1,0-0.21,0.01-0.31c0.02-0.23,0.1-0.31,0.33-0.27c0.49,0.08,0.99,0.11,1.49,0.11
				c1.1,0,2.18-0.12,3.27-0.24c1.19-0.13,2.35-0.36,3.53-0.54c0.61-0.09,1.21-0.25,1.82-0.36c1.49-0.28,2.96-0.69,4.42-1.09
				c0.06-0.02,0.13-0.03,0.19-0.06c0.11-0.09,0.2-0.19,0.09-0.34c-0.06-0.12-0.16-0.09-0.26-0.07c-0.63,0.13-1.25,0.25-1.88,0.37
				c-1.28,0.26-2.54,0.55-3.82,0.8c-1.18,0.23-2.36,0.44-3.54,0.6c-1.11,0.15-2.23,0.3-3.36,0.32c-0.56,0.01-1.13,0.05-1.69-0.09
				c-0.33-0.08-0.62-0.21-0.76-0.56c-0.05-0.14-0.07-0.29-0.07-0.43c0-0.3,0.03-0.61,0.12-0.9c0.01-0.03,0-0.06-0.02-0.08
				c-0.03-0.13-0.1-0.07-0.12-0.01c-0.04,0.11-0.12,0.18-0.17,0.28c-0.09,0.16-0.02,0.33-0.01,0.48c0.01,0.26,0.08,0.51,0.13,0.77
				c0.01,0.07,0.06,0.1,0.1,0.15c0.14,0.16,0.12,0.31-0.05,0.41c-0.04,0.02-0.07,0.05-0.07,0.1c0,0.05,0.05,0.04,0.08,0.05
				c0.05,0,0.09,0.02,0.09,0.07c0,0.05-0.02,0.09-0.07,0.12c-0.15,0.08-0.21,0.05-0.26-0.11c-0.05-0.17-0.19-0.28-0.28-0.42
				C228.33,24.92,228.35,25.24,228.37,25.57z"/>
			<path class="st4" d="M225.09,41.67c0.75-0.03,1.49-0.08,2.24-0.1c2.22-0.08,4.43-0.19,6.64-0.36c2.23-0.16,4.46-0.34,6.69-0.52
				c0.57-0.04,1.14-0.1,1.7-0.16c0.62-0.06,1.24-0.01,1.86-0.07c1.7-0.17,3.4-0.39,5.09-0.67c1.5-0.25,2.98-0.6,4.44-1.01
				c1.26-0.35,2.52-0.73,3.76-1.16c0.09-0.03,0.17-0.06,0.26-0.09c0.02-0.1-0.09-0.08-0.12-0.13c-0.05-0.07-0.07-0.12,0.04-0.16
				c0.46-0.16,0.91-0.33,1.36-0.49c0.06-0.02,0.12-0.06,0.17-0.1c0.05-0.03,0.1-0.08,0.15-0.05c0.15,0.09,0.24-0.01,0.34-0.08
				c0.14-0.1,0.29-0.18,0.44-0.25c-0.03-0.09-0.1-0.08-0.16-0.05c-0.39,0.13-0.77,0.27-1.15,0.42c-0.16,0.14-0.38,0.11-0.56,0.21
				c-0.04,0.02-0.08,0.01-0.12,0.05c-0.27,0.12-0.56,0.16-0.83,0.26c-0.87,0.3-1.76,0.54-2.64,0.79c-0.81,0.23-1.64,0.41-2.45,0.64
				c-1.38,0.4-2.81,0.6-4.22,0.86c-1.52,0.28-3.05,0.42-4.58,0.6c-1.22,0.14-2.43,0.24-3.65,0.32c-0.85,0.05-1.7,0.16-2.54,0.26
				c-0.96,0.11-1.93,0.14-2.89,0.23c-0.59,0.05-1.18,0.09-1.77,0.13c-0.92,0.06-1.85,0.1-2.77,0.11c-0.96,0.01-1.92-0.01-2.88-0.05
				c-0.03,0-0.06,0-0.09,0.01c-0.08,0.1-0.18,0.14-0.32,0.12c-0.31-0.05-0.62-0.01-0.92,0.04c-0.36,0.06-0.72,0.09-1.08,0.05
				c-0.38,0.02-0.77,0.01-1.15-0.04c-0.33,0.06-0.67,0.04-1.01,0.04c-0.12,0-0.27-0.09-0.34,0.1c0.03,0.04,0.05,0.11,0.09,0.13
				c0.16,0.08,0.13,0.21,0.08,0.34c0.38-0.01,0.76-0.02,1.14-0.04C223.94,41.74,224.52,41.71,225.09,41.67z"/>
			<path d="M259.6,36.95c0.01-0.08-0.04-0.06-0.08-0.05c-0.16,0.02-0.26,0.13-0.39,0.21C259.28,37.06,259.44,37.02,259.6,36.95z"/>
			<path d="M258.64,37.25c0.11,0.01,0.2-0.04,0.3-0.06c0.04-0.02,0.09-0.05,0.13-0.07C258.88,37.01,258.77,37.17,258.64,37.25z"/>
			<path d="M257.54,27.01c0.09-0.16,0.2-0.32,0.22-0.51c0.03-0.26,0.02-0.53,0.01-0.79c0-0.1-0.02-0.19-0.09-0.25
				c-0.08-0.06-0.13-0.14-0.19-0.22c-0.38-0.39-0.74-0.79-1.09-1.21c-0.04-0.05-0.07-0.1-0.13-0.11c-0.16-0.18-0.16-0.18-0.32,0
				c-0.06,0.06-0.11,0.13-0.16,0.19c-0.05,0.03-0.11,0.04-0.14,0.1c-0.43,0.73-1.05,1.3-1.69,1.85c-0.72,0.63-1.52,1.13-2.32,1.64
				c-1.01,0.64-2.08,1.18-3.17,1.68c-0.66,0.3-1.33,0.57-2.01,0.82c-0.63,0.24-1.26,0.48-1.9,0.7c-1.27,0.43-2.55,0.84-3.86,1.17
				c-1.58,0.41-3.17,0.78-4.77,1.05c-1.75,0.3-3.51,0.43-5.29,0.36c-0.36-0.02-0.73-0.03-1.09-0.1c-0.1-0.02-0.17,0-0.2,0.1
				c-0.05,0.32-0.01,0.65-0.01,0.98c0.03,0.16,0.05,0.31,0.04,0.47c-0.09,0.39-0.04,0.79-0.07,1.19c-0.02,0.23,0.06,0.38,0.27,0.48
				c0.21,0.1,0.44,0.14,0.67,0.17c0.79,0.1,1.59,0.07,2.38,0.06c1.12-0.02,2.23-0.12,3.34-0.27c1.09-0.14,2.18-0.33,3.26-0.6
				c0.97-0.15,1.93-0.4,2.88-0.64c0.78-0.19,1.55-0.43,2.32-0.67c0.48-0.15,0.96-0.3,1.43-0.47c0.64-0.24,1.29-0.44,1.93-0.68
				c0.28-0.15,0.57-0.25,0.86-0.36c0.37-0.14,0.74-0.29,1.11-0.46c0.72-0.33,1.42-0.68,2.14-1.02c0.19-0.09,0.35-0.23,0.55-0.32"/>
			<path class="st3" d="M245.12,17.69c0.44-0.24,1.02-0.53,1.42-1.08c0.12-0.17,0.23-0.34,0.32-0.53c0.11-0.25,0.06-0.42-0.16-0.59
				c-0.24-0.18-0.53-0.24-0.82-0.27c-1.32-0.14-2.55,0.17-3.71,0.79c-1.17,0.62-2.18,1.44-3.13,2.34c-0.17,0.16-0.32,0.33-0.45,0.52
				c-0.03,0.04-0.06,0.09-0.03,0.14c0.03,0.05,0.09,0.03,0.13,0.03c1.66-0.21,3.33-0.36,4.95-0.78
				C244.09,18.14,244.55,17.97,245.12,17.69z"/>
			<path d="M257.86,37.5c0.25-0.07,0.51-0.13,0.75-0.25c0.02-0.15-0.1-0.09-0.14-0.07c-0.16,0.07-0.29,0.18-0.48,0.17
				C257.91,37.36,257.91,37.46,257.86,37.5z"/>
			<path class="st5" d="M229.51,27.94c0.45,0.28,0.95,0.39,1.47,0.43c0.32,0.03,0.64,0.03,0.96-0.02c-0.01-0.15-0.13-0.13-0.22-0.13
				c-0.24,0-0.47-0.06-0.7-0.04c-0.01-0.05,0.03-0.09,0.01-0.13c-0.28-0.06-0.58-0.03-0.86-0.12c-0.21-0.07-0.41-0.15-0.59-0.28
				C229.59,27.76,229.56,27.86,229.51,27.94z"/>
			<path class="st6" d="M257.7,26.48c-0.25,0.57-0.6,1.06-1,1.53c-0.77,0.92-1.76,1.58-2.72,2.27c-0.32,0.23-0.67,0.42-0.99,0.65
				c-0.17,0.13-0.35,0.23-0.54,0.32c-0.02,0.05-0.12,0.09-0.04,0.17c0.05,0.05,0.11,0.02,0.17-0.01c0.34-0.22,0.7-0.41,1.09-0.54
				c0.09-0.03,0.17-0.07,0.24-0.12c0.28-0.18,0.57-0.32,0.82-0.53c0.06-0.05,0.13-0.04,0.19-0.08c0.69-0.5,1.38-0.99,1.98-1.6
				c0.32-0.32,0.6-0.67,0.83-1.06c0.17-0.28,0.18-0.58,0.16-0.88c0-0.06-0.02-0.11-0.07-0.14C257.79,26.45,257.74,26.44,257.7,26.48
				z"/>
			<path class="st7" d="M253.87,30.67c-0.45,0.21-0.88,0.44-1.31,0.69c-0.04,0.02-0.07,0.06-0.11,0.03c-0.04-0.03,0-0.08,0-0.12
				c-0.95,0.53-1.92,0.98-2.91,1.42c-0.59,0.26-1.2,0.5-1.8,0.75c-0.21,0.2-0.5,0.26-0.74,0.4c0.06,0.1,0.15,0.09,0.24,0.06
				c0.19-0.06,0.37-0.13,0.54-0.21c0.27-0.11,0.53-0.22,0.8-0.31c0.23-0.08,0.46-0.2,0.68-0.29c0.34-0.14,0.66-0.35,1.03-0.43
				c0.16-0.03,0.31-0.12,0.46-0.18c0.65-0.31,1.31-0.61,1.94-0.97c0.37-0.21,0.73-0.43,1.1-0.65
				C253.85,30.8,253.92,30.76,253.87,30.67z"/>
			<path class="st8" d="M229.35,35.02c0.03-0.03,0.06-0.06,0.09-0.08c0.05-0.16-0.01-0.31-0.03-0.47c-0.02,0.02-0.03,0.04-0.05,0.06
				C229.16,34.64,229.15,34.9,229.35,35.02z"/>
			<path class="st9" d="M234,31.82c-0.03,0.03-0.05,0.05-0.08,0.08c0.4,0.01,0.8-0.09,1.19-0.15c0.36-0.06,0.72-0.12,1.08-0.19
				c0-0.03-0.02-0.03-0.03-0.02C235.44,31.63,234.72,31.72,234,31.82z"/>
			<path class="st10" d="M265.84,31.65c-0.17,0.18-0.38,0.29-0.59,0.42c-0.28,0.17-0.53,0.37-0.83,0.51
				c0.03,0.15,0.13,0.1,0.22,0.07c0.27-0.08,0.54-0.19,0.79-0.32c0.45-0.33,0.9-0.66,1.34-1.01c0.3-0.24,0.62-0.47,0.89-0.75
				c-0.06-0.11-0.12-0.05-0.19,0c-0.21,0.15-0.39,0.35-0.63,0.47c-0.07,0.03-0.13,0.09-0.21,0.08
				C266.37,31.28,266.13,31.5,265.84,31.65z"/>
			<path class="st11" d="M251.73,24.93c-0.05,0.03-0.11,0.05-0.08,0.12c0.06,0.14,0.05,0.27,0.01,0.4
				c-0.02,0.05-0.01,0.11,0.05,0.12c0.05,0.01,0.07-0.04,0.08-0.08c0.01-0.06,0.02-0.12,0.03-0.18c0.01-0.14,0.05-0.26,0.21-0.3
				c0.03-0.01,0.06-0.02,0.06-0.06c0-0.04-0.04-0.04-0.07-0.05C251.92,24.9,251.83,24.89,251.73,24.93z"/>
			<path class="st12" d="M231.03,28.05c-0.06,0.03-0.12,0.05-0.19,0.04c-0.04-0.01-0.08,0-0.08,0.05c-0.01,0.05,0.03,0.06,0.06,0.08
				c0.09,0.04,0.17,0.08,0.28,0.08c0.24,0,0.47,0.02,0.71,0.03c0.05,0,0.09,0.02,0.14,0.03c0.85-0.02,1.7-0.1,2.54-0.22
				c2.15-0.29,4.27-0.78,6.36-1.37c0.91-0.26,1.81-0.56,2.7-0.9c0.12-0.06,0.22-0.14,0.33-0.22c0.15-0.1,0.34-0.13,0.51-0.21
				c0.16-0.08,0.31-0.2,0.5-0.2c0.05,0,0.11-0.05,0.08-0.12c-0.03-0.08-0.11-0.11-0.2-0.09c-0.07,0.02-0.13,0.11-0.22,0.05
				c0,0,0,0,0,0c-0.2,0.09-0.41,0.16-0.62,0.22c-0.37,0.12-0.74,0.25-1.11,0.34c-0.61,0.14-1.19,0.34-1.78,0.53
				c-1.34,0.43-2.7,0.76-4.07,1.05c-1.67,0.36-3.34,0.64-5.04,0.78C231.63,28.05,231.33,28.04,231.03,28.05z"/>
			<path class="st13" d="M263.7,27.09c0.03-0.11,0.05-0.22,0.04-0.34c-0.07-0.09-0.09-0.03-0.11,0.03
				c-0.08,0.21-0.12,0.43-0.24,0.62c-0.03,0.05-0.06,0.1-0.12,0.14c-0.18,0.39-0.44,0.73-0.71,1.07c0.03,0.15,0.14,0.12,0.19,0.06
				c0.26-0.28,0.57-0.54,0.73-0.89C263.57,27.56,263.64,27.32,263.7,27.09z"/>
			<path class="st14" d="M247.75,33.6c-0.19,0.03-0.36,0.13-0.55,0.18c-0.06,0.02-0.12,0.05-0.19,0.05
				c-0.02,0.01-0.04,0.02-0.07,0.03c-0.18,0.02-0.34,0.11-0.51,0.18c-0.07,0.03-0.13,0.09-0.22,0.09c-0.71,0.28-1.43,0.52-2.15,0.75
				c-0.43,0.14-0.86,0.25-1.29,0.39c-0.55,0.18-1.13,0.25-1.68,0.42c-0.35,0.11-0.67,0.28-1.03,0.36c-0.04,0.01-0.1,0.03-0.09,0.08
				c0.02,0.07,0.08,0.03,0.12,0.02c0.61-0.2,1.26-0.18,1.87-0.38c0.65-0.21,1.33-0.28,1.99-0.41c0.44-0.09,0.86-0.25,1.28-0.4
				c0.38-0.14,0.77-0.24,1.15-0.36c0.1-0.03,0.2-0.08,0.31-0.12c-0.01-0.08-0.06-0.09-0.12-0.07c-0.29,0.08-0.58,0.16-0.87,0.19
				c0.28-0.19,0.6-0.32,0.91-0.45c0.33-0.14,0.68-0.2,1-0.38C247.68,33.73,247.76,33.7,247.75,33.6z"/>
			<path class="st7" d="M246.22,34.14c0.25-0.06,0.49-0.17,0.72-0.27c-0.09-0.04-0.17,0-0.25,0.04
				C246.53,33.99,246.37,34.06,246.22,34.14z"/>
			<path class="st15" d="M228.94,36.03c-0.22,0.34-0.1,0.89,0.23,1.11c0.2,0.13,0.42,0.19,0.64,0.25c0.47,0.02,0.94,0.04,1.41,0.05
				c1.65,0.05,3.29-0.03,4.92-0.29c0.07-0.01,0.13-0.03,0.19-0.05c-0.1-0.09-0.21-0.12-0.33-0.09c-0.17,0.03-0.35,0.03-0.51,0.09
				c-0.63,0.12-1.27,0.2-1.91,0.15c-0.21-0.08-0.42-0.01-0.63-0.01c-0.93-0.02-1.86,0.04-2.79-0.03c-0.47-0.04-0.81-0.31-1.1-0.66
				C228.92,36.37,228.89,36.21,228.94,36.03z"/>
			<path class="st16" d="M233.57,37.24c-0.05,0.01-0.09,0.02-0.14,0.03c0,0.01,0,0.02,0,0.03c0.25,0,0.5,0,0.75-0.01
				c0.39-0.03,0.77-0.05,1.15-0.14c0.05-0.01,0.11-0.01,0.15-0.06C234.85,37.17,234.21,37.22,233.57,37.24z"/>
			<path class="st17" d="M263.7,27.09c-0.09,0.21-0.17,0.43-0.26,0.64c-0.14,0.34-0.42,0.57-0.66,0.84
				c-0.06,0.06-0.14,0.08-0.22,0.04c-0.13,0.14-0.27,0.29-0.4,0.43c0.01,0,0.03,0,0.04,0.01c0.12,0.14,0.2,0.15,0.32,0
				c0.32-0.4,0.7-0.75,1-1.18c0.05-0.07,0.08-0.13,0.09-0.21c-0.1-0.04-0.03-0.1-0.01-0.14C263.62,27.37,263.71,27.24,263.7,27.09z"
				/>
			<path class="st17" d="M263.9,26.59c-0.06,0.2-0.11,0.41-0.11,0.62C263.87,27.01,263.91,26.8,263.9,26.59z"/>
			<path class="st18" d="M246.84,36.47c0.16-0.02,0.32-0.07,0.47-0.14C247.14,36.35,246.96,36.3,246.84,36.47z"/>
			<path class="st19" d="M258.72,31.38c-0.19,0.1-0.4,0.15-0.55,0.3C258.35,31.59,258.55,31.51,258.72,31.38z"/>
			<path class="st20" d="M258.97,24.41c0.25-0.05,0.51-0.04,0.75-0.11c0-0.13,0.1-0.23,0.11-0.4c-0.13,0.11-0.32,0.05-0.37,0.25
				c-0.01,0.05-0.08,0.07-0.14,0.07C259.17,24.21,259.06,24.28,258.97,24.41z"/>
			<path class="st21" d="M266.95,27.79c-0.14,0.05-0.17,0.19-0.22,0.29c-0.18,0.33-0.41,0.62-0.59,0.95
				C266.51,28.69,266.77,28.27,266.95,27.79z"/>
		</g>
	</g>
</g>
<g>
	<path d="M66.81,106.86c0.17,0.15,0.26,0.34,0.26,0.57c0,0.12-0.01,0.24-0.03,0.35s-0.05,0.26-0.1,0.46
		c-0.09,0.39-0.16,0.68-0.19,0.88c-0.13,0.7-0.28,1.57-0.42,2.61s-0.28,2.03-0.39,2.98l-0.65,5.89c-0.03,0.26-0.11,0.47-0.25,0.61
		s-0.37,0.22-0.7,0.22c-0.32,0-0.56-0.07-0.72-0.21c-0.16-0.14-0.3-0.36-0.42-0.65c-0.38-0.94-0.93-2.45-1.65-4.53
		s-1.53-4.47-2.42-7.18c-0.06,0.46-0.16,1.29-0.29,2.5c-0.04,0.36-0.09,0.81-0.15,1.37c-0.06,0.55-0.14,1.22-0.23,1.99
		c-0.17,1.35-0.31,2.56-0.41,3.64s-0.16,1.82-0.16,2.22c0,0.26-0.1,0.47-0.3,0.62s-0.47,0.23-0.82,0.23c-0.26,0-0.48-0.08-0.64-0.24
		s-0.25-0.36-0.25-0.6c0-0.09,0.06-0.42,0.18-1.01c0.16-0.78,0.3-1.56,0.44-2.35s0.27-1.7,0.4-2.74c0.35-2.88,0.56-4.7,0.65-5.48
		s0.13-1.27,0.13-1.5c0-0.25,0.11-0.46,0.32-0.62c0.21-0.16,0.5-0.24,0.85-0.24c0.29,0,0.56,0.06,0.79,0.18
		c0.24,0.12,0.39,0.28,0.46,0.47c0.49,1.35,1.1,3.08,1.84,5.19s1.42,4.14,2.07,6.1l0.08-0.78c0.18-1.65,0.3-2.75,0.37-3.32
		c0.22-1.83,0.37-3.21,0.44-4.14c0.08-0.93,0.13-1.72,0.16-2.37c0.01-0.28,0.02-0.44,0.03-0.48c0.03-0.26,0.14-0.47,0.33-0.62
		s0.45-0.22,0.78-0.22C66.43,106.64,66.64,106.71,66.81,106.86z"/>
	<path d="M77.44,112.06c-0.06,0.23-0.09,0.37-0.1,0.41c-0.11,0.43-0.17,0.69-0.18,0.8c-0.15,0.74-0.33,1.81-0.52,3.21
		c-0.2,1.39-0.29,2.3-0.29,2.72c0,0.19,0.02,0.43,0.05,0.72c0.04,0.28,0.05,0.5,0.05,0.64c0,0.25-0.08,0.46-0.23,0.62
		c-0.16,0.16-0.36,0.24-0.62,0.24c-0.34,0-0.59-0.12-0.74-0.36s-0.23-0.55-0.23-0.94c0-0.34,0.02-0.73,0.07-1.16
		c-0.43,0.79-0.94,1.41-1.53,1.86s-1.17,0.69-1.77,0.69c-0.64,0-1.19-0.16-1.64-0.47s-0.8-0.78-1.04-1.4s-0.36-1.37-0.36-2.25
		c0-1.18,0.23-2.29,0.69-3.33s1.07-1.86,1.85-2.48c0.78-0.62,1.62-0.93,2.54-0.93c0.47,0,0.88,0.09,1.23,0.27s0.66,0.45,0.93,0.81
		c0.05-0.33,0.16-0.59,0.35-0.76c0.18-0.17,0.43-0.25,0.74-0.25c0.23,0,0.44,0.08,0.6,0.24c0.17,0.16,0.25,0.35,0.25,0.58
		C77.52,111.65,77.49,111.83,77.44,112.06z M72.82,119.44c0.47-0.39,0.91-0.91,1.32-1.55c0.41-0.64,0.74-1.33,0.98-2.05l0.06-0.43
		c0.13-1,0.23-1.85,0.29-2.56c-0.05,0.02-0.11,0.03-0.17,0.03c-0.15,0-0.3-0.06-0.43-0.18c-0.23-0.22-0.45-0.38-0.66-0.5
		s-0.46-0.17-0.75-0.17c-0.6,0-1.17,0.26-1.72,0.77c-0.55,0.52-0.99,1.2-1.32,2.04s-0.5,1.73-0.5,2.65c0,0.87,0.13,1.51,0.4,1.92
		c0.27,0.41,0.67,0.62,1.21,0.62C71.92,120.03,72.35,119.83,72.82,119.44z"/>
	<path d="M86.37,110.87c0.12,0.08,0.18,0.21,0.18,0.4c0,0.3-0.13,0.54-0.38,0.71c-0.26,0.18-0.56,0.26-0.92,0.26l-0.96,0.01
		c-0.15,0.01-0.37,0.01-0.66,0.01l-0.28,2.02c-0.24,1.73-0.39,2.98-0.46,3.76s-0.1,1.44-0.11,1.99c0,0.27-0.01,0.48-0.03,0.62
		c-0.02,0.23-0.13,0.42-0.31,0.56s-0.41,0.21-0.68,0.21s-0.5-0.08-0.68-0.24c-0.18-0.16-0.28-0.35-0.28-0.56
		c0-0.09,0.01-0.2,0.04-0.33s0.05-0.24,0.07-0.34s0.04-0.17,0.05-0.23c0.14-0.58,0.25-1.12,0.33-1.61c0.1-0.63,0.25-1.72,0.44-3.25
		l0.31-2.52c-0.28,0.03-0.51,0.06-0.69,0.09c-0.41,0.05-0.71,0.08-0.91,0.08c-0.3,0-0.54-0.06-0.72-0.18
		c-0.19-0.12-0.28-0.31-0.28-0.58c0-0.3,0.08-0.53,0.25-0.7s0.39-0.25,0.68-0.25c0.21,0,0.42,0.01,0.66,0.04
		c0.35,0.05,0.74,0.07,1.18,0.08c0.11-1.07,0.16-1.87,0.18-2.38c0.01-0.24,0.02-0.38,0.03-0.42c0.03-0.23,0.13-0.41,0.31-0.54
		s0.41-0.2,0.7-0.2c0.26,0,0.47,0.08,0.65,0.23c0.17,0.15,0.26,0.35,0.26,0.58c0,0.19-0.07,0.61-0.22,1.25
		c-0.07,0.33-0.11,0.49-0.11,0.48l-0.16,0.95l0.26-0.02c0.09-0.01,0.34-0.02,0.73-0.04c0.39-0.02,0.75-0.04,1.05-0.04
		C86.09,110.75,86.25,110.79,86.37,110.87z"/>
	<path d="M96.61,112.26c-0.08,0.33-0.15,0.62-0.19,0.87c-0.16,0.87-0.34,1.98-0.53,3.33s-0.29,2.23-0.29,2.65
		c0,0.22,0.03,0.54,0.08,0.97c0.03,0.22,0.04,0.39,0.04,0.5c0,0.25-0.08,0.46-0.25,0.61c-0.17,0.16-0.42,0.23-0.76,0.23
		c-0.19,0-0.35-0.07-0.49-0.21s-0.23-0.34-0.27-0.59c-0.02-0.12-0.03-0.49-0.03-1.11c0-0.35,0.01-0.6,0.04-0.76
		c-0.49,0.86-1.05,1.55-1.68,2.05s-1.27,0.76-1.92,0.76c-0.59,0-1.08-0.14-1.48-0.41s-0.68-0.63-0.87-1.08
		c-0.19-0.45-0.28-0.94-0.28-1.46c0-0.23,0.03-0.67,0.1-1.31c0.07-0.64,0.14-1.31,0.21-2.01c0.23-1.99,0.36-3.26,0.37-3.81
		c0.01-0.24,0.11-0.44,0.3-0.6s0.46-0.24,0.81-0.24c0.21,0,0.39,0.07,0.56,0.22s0.25,0.34,0.25,0.58c0,0.14-0.05,0.4-0.15,0.76
		c-0.02,0.08-0.05,0.22-0.1,0.41s-0.08,0.37-0.11,0.54c-0.15,0.91-0.32,1.96-0.49,3.16c-0.17,1.2-0.26,1.96-0.26,2.29
		c0,0.46,0.09,0.82,0.27,1.08s0.49,0.4,0.93,0.4c0.5,0,1.01-0.22,1.54-0.67s1.02-1.06,1.47-1.84s0.81-1.64,1.08-2.58
		c0.25-1.79,0.37-2.96,0.37-3.51c0.01-0.25,0.09-0.45,0.26-0.61c0.17-0.16,0.42-0.24,0.76-0.24c0.21,0,0.4,0.07,0.57,0.2
		s0.25,0.32,0.25,0.57C96.77,111.53,96.72,111.82,96.61,112.26z"/>
	<path d="M105.35,110.89c0.18,0.17,0.27,0.39,0.27,0.66c0,0.26-0.08,0.48-0.23,0.66s-0.36,0.26-0.61,0.26
		c-0.3,0-0.54,0.01-0.71,0.02s-0.36,0.05-0.54,0.11s-0.38,0.16-0.58,0.3c-0.46,0.32-0.91,0.83-1.33,1.52s-0.76,1.45-1,2.26
		c-0.26,2.06-0.39,3.35-0.39,3.87c0,0.25-0.1,0.46-0.29,0.62s-0.44,0.24-0.75,0.24c-0.26,0-0.48-0.08-0.65-0.23
		s-0.25-0.34-0.25-0.57c0-0.09,0.02-0.23,0.05-0.4s0.08-0.35,0.12-0.54c0.06-0.23,0.12-0.5,0.18-0.81c0.15-0.74,0.33-1.79,0.53-3.16
		s0.3-2.27,0.3-2.7c0-0.21-0.02-0.47-0.05-0.8c-0.02-0.27-0.04-0.46-0.04-0.58c0-0.29,0.07-0.51,0.22-0.67s0.35-0.24,0.62-0.24
		c0.36,0,0.61,0.13,0.75,0.38s0.2,0.62,0.2,1.1c0,0.24-0.03,0.66-0.1,1.25l-0.03,0.21c0.49-0.99,1.05-1.74,1.67-2.25
		s1.26-0.77,1.94-0.77C104.94,110.64,105.17,110.72,105.35,110.89z"/>
	<path d="M115.08,112.06c-0.06,0.23-0.09,0.37-0.1,0.41c-0.11,0.43-0.17,0.69-0.18,0.8c-0.15,0.74-0.33,1.81-0.52,3.21
		c-0.2,1.39-0.29,2.3-0.29,2.72c0,0.19,0.02,0.43,0.05,0.72c0.04,0.28,0.05,0.5,0.05,0.64c0,0.25-0.08,0.46-0.23,0.62
		c-0.16,0.16-0.36,0.24-0.62,0.24c-0.34,0-0.59-0.12-0.74-0.36s-0.23-0.55-0.23-0.94c0-0.34,0.02-0.73,0.07-1.16
		c-0.43,0.79-0.94,1.41-1.53,1.86s-1.17,0.69-1.77,0.69c-0.64,0-1.19-0.16-1.64-0.47s-0.8-0.78-1.04-1.4s-0.36-1.37-0.36-2.25
		c0-1.18,0.23-2.29,0.69-3.33s1.07-1.86,1.85-2.48c0.78-0.62,1.62-0.93,2.54-0.93c0.47,0,0.88,0.09,1.23,0.27s0.66,0.45,0.93,0.81
		c0.05-0.33,0.16-0.59,0.35-0.76c0.18-0.17,0.43-0.25,0.74-0.25c0.23,0,0.44,0.08,0.6,0.24c0.17,0.16,0.25,0.35,0.25,0.58
		C115.16,111.65,115.14,111.83,115.08,112.06z M110.46,119.44c0.47-0.39,0.91-0.91,1.32-1.55c0.41-0.64,0.74-1.33,0.98-2.05
		l0.06-0.43c0.13-1,0.23-1.85,0.29-2.56c-0.05,0.02-0.11,0.03-0.17,0.03c-0.15,0-0.3-0.06-0.43-0.18c-0.23-0.22-0.45-0.38-0.66-0.5
		s-0.46-0.17-0.75-0.17c-0.6,0-1.17,0.26-1.72,0.77c-0.55,0.52-0.99,1.2-1.32,2.04s-0.5,1.73-0.5,2.65c0,0.87,0.13,1.51,0.4,1.92
		c0.27,0.41,0.67,0.62,1.21,0.62C109.56,120.03,109.99,119.83,110.46,119.44z"/>
	<path d="M117.1,121.19c-0.18-0.16-0.28-0.34-0.28-0.55c0-0.11,0.01-0.24,0.04-0.4s0.06-0.33,0.11-0.52
		c0.13-0.57,0.24-1.14,0.33-1.71c0.2-1.23,0.38-2.49,0.54-3.77c0.28-2.23,0.46-3.82,0.54-4.79c0.08-0.97,0.14-1.71,0.15-2.23
		c0.01-0.22,0.02-0.35,0.03-0.4c0.03-0.23,0.13-0.42,0.32-0.55s0.42-0.2,0.72-0.2c0.27,0,0.49,0.08,0.67,0.23s0.26,0.35,0.26,0.58
		c0,0.08-0.04,0.3-0.12,0.66c-0.1,0.39-0.18,0.74-0.23,1.06c-0.11,0.65-0.23,1.47-0.37,2.47s-0.26,2-0.38,3.02
		c-0.32,2.79-0.5,4.75-0.54,5.86c-0.02,0.35-0.04,0.58-0.05,0.69c-0.03,0.23-0.14,0.42-0.33,0.56s-0.43,0.21-0.74,0.21
		C117.51,121.42,117.29,121.34,117.1,121.19z"/>
	<path d="M135.03,111.42c0.41,0.52,0.62,1.27,0.62,2.24c0,0.21-0.02,0.52-0.06,0.92s-0.08,0.75-0.12,1.05s-0.07,0.52-0.08,0.65
		c-0.01,0.05-0.06,0.43-0.15,1.16c-0.07,0.59-0.15,1.37-0.23,2.32l-0.07,0.81c-0.03,0.27-0.14,0.48-0.33,0.62s-0.45,0.22-0.76,0.22
		c-0.23,0-0.43-0.08-0.59-0.23c-0.16-0.16-0.24-0.34-0.24-0.57c0-0.1,0.04-0.36,0.13-0.77s0.16-0.75,0.23-1.02
		c0.13-0.52,0.28-1.37,0.45-2.54s0.25-1.98,0.25-2.4c0-0.52-0.1-0.94-0.3-1.27s-0.47-0.49-0.8-0.49c-0.36,0-0.75,0.17-1.15,0.51
		s-0.79,0.8-1.16,1.4s-0.69,1.27-0.96,2.02l-0.18,1.39c-0.07,0.59-0.15,1.37-0.23,2.32l-0.07,0.81c-0.03,0.26-0.14,0.47-0.33,0.62
		c-0.19,0.15-0.44,0.22-0.73,0.22c-0.26,0-0.47-0.08-0.63-0.23s-0.23-0.35-0.23-0.59c0-0.06,0.02-0.19,0.07-0.38
		c0.04-0.19,0.07-0.31,0.08-0.36c0.1-0.4,0.2-0.87,0.31-1.41c0.17-0.87,0.31-1.73,0.42-2.58s0.17-1.51,0.17-1.99
		c0-0.52-0.1-0.94-0.3-1.27c-0.2-0.33-0.46-0.49-0.78-0.49c-0.36,0-0.75,0.17-1.16,0.51c-0.41,0.34-0.81,0.82-1.19,1.43
		c-0.38,0.61-0.7,1.29-0.96,2.05c-0.15,1.21-0.28,2.45-0.39,3.73c-0.05,0.5-0.07,0.77-0.08,0.79c-0.03,0.23-0.14,0.42-0.33,0.56
		s-0.45,0.22-0.77,0.22c-0.23,0-0.43-0.08-0.59-0.23c-0.16-0.16-0.24-0.34-0.24-0.57c0-0.09,0.02-0.23,0.05-0.4s0.08-0.35,0.12-0.54
		c0.06-0.23,0.12-0.5,0.18-0.81c0.15-0.74,0.33-1.79,0.53-3.16s0.3-2.27,0.3-2.7c0-0.2-0.02-0.47-0.05-0.81
		c-0.02-0.28-0.04-0.48-0.04-0.59c0-0.28,0.07-0.5,0.21-0.66s0.33-0.24,0.58-0.24c0.37,0,0.63,0.13,0.78,0.38
		c0.15,0.25,0.22,0.62,0.22,1.12c0,0.27-0.02,0.61-0.07,1.02c0.5-0.87,1.02-1.51,1.56-1.94s1.1-0.64,1.66-0.64
		c0.71,0,1.28,0.25,1.69,0.74s0.63,1.2,0.65,2.12c0.52-0.96,1.07-1.68,1.64-2.15c0.57-0.47,1.15-0.71,1.75-0.71
		C134.04,110.64,134.62,110.9,135.03,111.42z"/>
	<path d="M145.06,118.37c0.16,0.16,0.24,0.34,0.24,0.57c0,0.39-0.22,0.78-0.65,1.18s-0.98,0.73-1.63,1c-0.65,0.26-1.28,0.4-1.88,0.4
		c-0.73,0-1.36-0.16-1.91-0.47s-0.97-0.77-1.27-1.37s-0.45-1.3-0.45-2.1c0-1.11,0.23-2.2,0.69-3.27s1.08-1.95,1.88-2.63
		s1.68-1.02,2.65-1.02c0.6,0,1.11,0.12,1.54,0.35s0.75,0.56,0.98,0.98s0.34,0.92,0.34,1.5c0,0.79-0.31,1.48-0.93,2.06
		s-1.42,1.03-2.4,1.34c-0.98,0.31-2.01,0.48-3.07,0.51v0.17c0,0.82,0.16,1.47,0.49,1.96s0.8,0.73,1.42,0.73
		c0.47,0,0.92-0.13,1.34-0.38s0.83-0.69,1.25-1.31c0.08-0.13,0.19-0.23,0.33-0.29s0.29-0.1,0.46-0.1
		C144.7,118.14,144.9,118.21,145.06,118.37z M141.11,112.67c-0.44,0.38-0.82,0.89-1.12,1.51c-0.31,0.62-0.53,1.28-0.66,1.99
		c0.7-0.02,1.42-0.16,2.16-0.4c0.73-0.25,1.35-0.58,1.83-0.99s0.73-0.87,0.73-1.37c0-0.25-0.06-0.47-0.19-0.66
		c-0.13-0.2-0.3-0.35-0.53-0.47s-0.49-0.17-0.77-0.17C142.04,112.1,141.56,112.29,141.11,112.67z"/>
	<path d="M155.4,111.5c0.46,0.58,0.69,1.37,0.69,2.38c0,0.5-0.13,1.69-0.4,3.57c-0.07,0.52-0.13,1.02-0.17,1.51
		s-0.06,0.78-0.07,0.87c-0.01,0.21-0.03,0.45-0.06,0.75c-0.03,0.27-0.14,0.48-0.33,0.62s-0.45,0.22-0.76,0.22
		c-0.23,0-0.43-0.08-0.59-0.23c-0.16-0.16-0.24-0.34-0.24-0.57c0-0.06,0.02-0.2,0.07-0.41s0.08-0.35,0.1-0.42
		c0.08-0.3,0.14-0.57,0.18-0.78c0.13-0.67,0.29-1.6,0.47-2.78s0.26-1.97,0.26-2.38c0-0.56-0.11-0.99-0.33-1.28s-0.55-0.44-0.98-0.44
		c-0.49,0-0.96,0.16-1.42,0.47s-0.89,0.75-1.27,1.31s-0.71,1.22-0.97,1.96c-0.19,1.55-0.34,2.89-0.43,4.03
		c-0.01,0.18-0.04,0.42-0.07,0.73c-0.03,0.23-0.14,0.42-0.33,0.56s-0.45,0.22-0.77,0.22c-0.23,0-0.43-0.08-0.59-0.23
		s-0.24-0.34-0.24-0.57c0-0.13,0.05-0.4,0.16-0.81c0.08-0.28,0.15-0.56,0.2-0.84c0.15-0.72,0.33-1.77,0.53-3.16s0.3-2.27,0.3-2.65
		c0-0.26-0.03-0.58-0.09-0.96c-0.04-0.26-0.06-0.45-0.06-0.59c0-0.28,0.08-0.5,0.24-0.66s0.37-0.24,0.61-0.24
		c0.26,0,0.46,0.06,0.61,0.18c0.15,0.12,0.25,0.3,0.31,0.54c0.05,0.24,0.08,0.49,0.08,0.76c0,0.16-0.02,0.45-0.05,0.89
		c1.01-1.62,2.16-2.43,3.44-2.43C154.28,110.64,154.94,110.93,155.4,111.5z"/>
	<path d="M165.32,110.87c0.12,0.08,0.18,0.21,0.18,0.4c0,0.3-0.13,0.54-0.38,0.71c-0.26,0.18-0.56,0.26-0.92,0.26l-0.96,0.01
		c-0.15,0.01-0.37,0.01-0.66,0.01l-0.28,2.02c-0.24,1.73-0.39,2.98-0.46,3.76s-0.1,1.44-0.11,1.99c0,0.27-0.01,0.48-0.03,0.62
		c-0.02,0.23-0.13,0.42-0.31,0.56s-0.41,0.21-0.68,0.21s-0.5-0.08-0.68-0.24c-0.18-0.16-0.28-0.35-0.28-0.56
		c0-0.09,0.01-0.2,0.04-0.33s0.05-0.24,0.07-0.34s0.04-0.17,0.05-0.23c0.14-0.58,0.25-1.12,0.33-1.61c0.1-0.63,0.25-1.72,0.44-3.25
		l0.31-2.52c-0.28,0.03-0.51,0.06-0.69,0.09c-0.41,0.05-0.71,0.08-0.91,0.08c-0.3,0-0.54-0.06-0.72-0.18
		c-0.19-0.12-0.28-0.31-0.28-0.58c0-0.3,0.08-0.53,0.25-0.7s0.39-0.25,0.68-0.25c0.21,0,0.42,0.01,0.66,0.04
		c0.35,0.05,0.74,0.07,1.18,0.08c0.11-1.07,0.16-1.87,0.18-2.38c0.01-0.24,0.02-0.38,0.03-0.42c0.03-0.23,0.13-0.41,0.31-0.54
		s0.41-0.2,0.7-0.2c0.26,0,0.47,0.08,0.65,0.23c0.17,0.15,0.26,0.35,0.26,0.58c0,0.19-0.07,0.61-0.22,1.25
		c-0.07,0.33-0.11,0.49-0.11,0.48l-0.16,0.95l0.26-0.02c0.09-0.01,0.34-0.02,0.73-0.04c0.39-0.02,0.75-0.04,1.05-0.04
		C165.04,110.75,165.21,110.79,165.32,110.87z"/>
	<path d="M173.13,118.37c0.16,0.16,0.24,0.34,0.24,0.57c0,0.39-0.22,0.78-0.65,1.18s-0.98,0.73-1.63,1c-0.65,0.26-1.28,0.4-1.88,0.4
		c-0.73,0-1.36-0.16-1.91-0.47s-0.97-0.77-1.27-1.37s-0.45-1.3-0.45-2.1c0-1.11,0.23-2.2,0.69-3.27s1.08-1.95,1.88-2.63
		s1.68-1.02,2.65-1.02c0.6,0,1.11,0.12,1.54,0.35s0.75,0.56,0.98,0.98s0.34,0.92,0.34,1.5c0,0.79-0.31,1.48-0.93,2.06
		s-1.42,1.03-2.4,1.34c-0.98,0.31-2.01,0.48-3.07,0.51v0.17c0,0.82,0.16,1.47,0.49,1.96s0.8,0.73,1.42,0.73
		c0.47,0,0.92-0.13,1.34-0.38s0.83-0.69,1.25-1.31c0.08-0.13,0.19-0.23,0.33-0.29s0.29-0.1,0.46-0.1
		C172.77,118.14,172.97,118.21,173.13,118.37z M169.19,112.67c-0.44,0.38-0.82,0.89-1.12,1.51c-0.31,0.62-0.53,1.28-0.66,1.99
		c0.7-0.02,1.42-0.16,2.16-0.4c0.73-0.25,1.35-0.58,1.83-0.99s0.73-0.87,0.73-1.37c0-0.25-0.06-0.47-0.19-0.66
		c-0.13-0.2-0.3-0.35-0.53-0.47s-0.49-0.17-0.77-0.17C170.11,112.1,169.63,112.29,169.19,112.67z"/>
	<path d="M189.76,107.96c1.28,1.03,1.92,2.53,1.92,4.52c0,1.58-0.37,3.07-1.1,4.47s-1.74,2.53-3.02,3.38s-2.71,1.27-4.28,1.27
		c-0.36,0-0.67-0.06-0.95-0.17c-0.27-0.11-0.48-0.27-0.63-0.47s-0.22-0.43-0.22-0.69c0-0.22,0.03-0.53,0.08-0.94
		c0.05-0.4,0.14-1,0.27-1.81c0.02-0.16,0.1-0.65,0.22-1.45s0.24-1.62,0.34-2.47c0.04-0.32,0.16-1.33,0.35-3.02l0.26-2.23h-0.24
		c-0.26,0-0.46-0.07-0.59-0.2c-0.14-0.13-0.21-0.31-0.21-0.53c0-0.38,0.18-0.67,0.55-0.88s0.86-0.32,1.48-0.32
		C186.56,106.42,188.47,106.93,189.76,107.96z M186.73,118.97c1.01-0.68,1.8-1.59,2.37-2.72c0.56-1.13,0.85-2.35,0.85-3.66
		c0-0.94-0.17-1.74-0.52-2.4s-0.85-1.15-1.5-1.49s-1.44-0.51-2.35-0.51c-0.3,0-0.58,0.01-0.83,0.03l-0.42,3.47l-0.23,1.91
		l-0.24,1.92c-0.04,0.29-0.12,0.95-0.24,1.98c-0.13,1.03-0.22,1.89-0.29,2.55C184.58,120.01,185.72,119.65,186.73,118.97z"/>
	<path d="M200.71,118.37c0.16,0.16,0.24,0.34,0.24,0.57c0,0.39-0.22,0.78-0.65,1.18s-0.98,0.73-1.63,1c-0.65,0.26-1.28,0.4-1.88,0.4
		c-0.73,0-1.36-0.16-1.91-0.47s-0.97-0.77-1.27-1.37s-0.45-1.3-0.45-2.1c0-1.11,0.23-2.2,0.69-3.27s1.08-1.95,1.88-2.63
		s1.68-1.02,2.65-1.02c0.6,0,1.11,0.12,1.54,0.35s0.75,0.56,0.98,0.98s0.34,0.92,0.34,1.5c0,0.79-0.31,1.48-0.93,2.06
		s-1.42,1.03-2.4,1.34c-0.98,0.31-2.01,0.48-3.07,0.51v0.17c0,0.82,0.16,1.47,0.49,1.96s0.8,0.73,1.42,0.73
		c0.47,0,0.92-0.13,1.34-0.38s0.83-0.69,1.25-1.31c0.08-0.13,0.19-0.23,0.33-0.29s0.29-0.1,0.46-0.1
		C200.35,118.14,200.55,118.21,200.71,118.37z M196.77,112.67c-0.44,0.38-0.82,0.89-1.12,1.51c-0.31,0.62-0.53,1.28-0.66,1.99
		c0.7-0.02,1.42-0.16,2.16-0.4c0.73-0.25,1.35-0.58,1.83-0.99s0.73-0.87,0.73-1.37c0-0.25-0.06-0.47-0.19-0.66
		c-0.13-0.2-0.3-0.35-0.53-0.47s-0.49-0.17-0.77-0.17C197.69,112.1,197.21,112.29,196.77,112.67z"/>
	<path d="M203.15,121.19c-0.18-0.16-0.28-0.34-0.28-0.55c0-0.11,0.01-0.24,0.04-0.4s0.06-0.33,0.11-0.52
		c0.13-0.57,0.24-1.14,0.33-1.71c0.2-1.23,0.38-2.49,0.54-3.77c0.28-2.23,0.46-3.82,0.54-4.79c0.08-0.97,0.14-1.71,0.15-2.23
		c0.01-0.22,0.02-0.35,0.03-0.4c0.03-0.23,0.13-0.42,0.32-0.55s0.42-0.2,0.72-0.2c0.27,0,0.49,0.08,0.67,0.23s0.26,0.35,0.26,0.58
		c0,0.08-0.04,0.3-0.12,0.66c-0.1,0.39-0.18,0.74-0.23,1.06c-0.11,0.65-0.23,1.47-0.37,2.47s-0.26,2-0.38,3.02
		c-0.32,2.79-0.5,4.75-0.54,5.86c-0.02,0.35-0.04,0.58-0.05,0.69c-0.03,0.23-0.14,0.42-0.33,0.56s-0.43,0.21-0.74,0.21
		C203.56,121.42,203.33,121.34,203.15,121.19z"/>
	<path d="M208.43,121.22c-0.18-0.13-0.26-0.33-0.26-0.59c0-0.12,0.03-0.35,0.09-0.68s0.09-0.53,0.11-0.58
		c0.04-0.22,0.09-0.52,0.16-0.91c0.09-0.58,0.18-1.24,0.28-1.98c0.03-0.19,0.06-0.4,0.09-0.62s0.06-0.45,0.1-0.69
		c0.19-1.32,0.28-2.53,0.28-3.62c0-0.27,0.09-0.49,0.27-0.65s0.42-0.25,0.71-0.25c0.28,0,0.5,0.07,0.68,0.21
		c0.18,0.14,0.27,0.34,0.27,0.59c0,0.16-0.03,0.4-0.08,0.72s-0.11,0.66-0.18,1.02c-0.02,0.1-0.07,0.39-0.16,0.86
		s-0.16,0.92-0.21,1.36c-0.12,0.97-0.23,1.95-0.33,2.94s-0.15,1.74-0.15,2.24c0,0.23-0.09,0.43-0.28,0.6
		c-0.19,0.16-0.43,0.25-0.73,0.25C208.82,121.42,208.61,121.36,208.43,121.22z M209.88,109.01c-0.14-0.14-0.22-0.35-0.22-0.65
		c0-0.11,0.01-0.22,0.03-0.35c0.06-0.4,0.19-0.71,0.38-0.92c0.2-0.21,0.46-0.31,0.79-0.31c0.3,0,0.54,0.06,0.72,0.18
		s0.25,0.27,0.22,0.46c-0.02,0.11-0.04,0.2-0.07,0.25s-0.05,0.09-0.05,0.11c-0.05,0.08-0.09,0.17-0.11,0.26
		c-0.01,0.05-0.02,0.16-0.04,0.31l-0.03,0.31c-0.03,0.19-0.12,0.33-0.28,0.42c-0.16,0.09-0.39,0.14-0.7,0.14
		C210.24,109.21,210.02,109.15,209.88,109.01z"/>
	<path d="M214.85,121.04c-0.51-0.31-0.91-0.77-1.19-1.37s-0.42-1.33-0.42-2.19c0-1.18,0.19-2.3,0.58-3.35s0.94-1.89,1.67-2.54
		s1.57-0.96,2.53-0.96c0.47,0,0.94,0.13,1.38,0.39c0.45,0.26,0.81,0.59,1.09,0.98c0.28,0.4,0.42,0.79,0.42,1.19
		c0,0.18-0.04,0.33-0.12,0.47c-0.08,0.14-0.18,0.25-0.3,0.33s-0.25,0.12-0.38,0.12c-0.15,0-0.28-0.05-0.39-0.14
		c-0.11-0.09-0.2-0.24-0.27-0.45c-0.17-0.49-0.39-0.85-0.65-1.1c-0.26-0.25-0.59-0.37-0.99-0.37c-0.51,0-0.99,0.26-1.45,0.78
		s-0.82,1.2-1.1,2.05s-0.41,1.73-0.41,2.65c0,0.82,0.16,1.46,0.48,1.91s0.76,0.68,1.32,0.68c0.47,0,0.89-0.11,1.27-0.32
		c0.38-0.21,0.75-0.59,1.11-1.12c0.14-0.21,0.29-0.35,0.45-0.44s0.34-0.13,0.54-0.13c0.18,0,0.33,0.08,0.46,0.23
		s0.19,0.34,0.19,0.55c0,0.41-0.2,0.82-0.59,1.23c-0.39,0.41-0.9,0.75-1.53,1.01c-0.62,0.26-1.25,0.39-1.89,0.39
		C215.96,121.51,215.36,121.36,214.85,121.04z"/>
	<path d="M223.38,121.22c-0.18-0.13-0.26-0.33-0.26-0.59c0-0.12,0.03-0.35,0.09-0.68s0.09-0.53,0.11-0.58
		c0.04-0.22,0.09-0.52,0.16-0.91c0.09-0.58,0.18-1.24,0.28-1.98c0.03-0.19,0.06-0.4,0.09-0.62s0.06-0.45,0.1-0.69
		c0.19-1.32,0.28-2.53,0.28-3.62c0-0.27,0.09-0.49,0.27-0.65s0.42-0.25,0.71-0.25c0.28,0,0.5,0.07,0.68,0.21
		c0.18,0.14,0.27,0.34,0.27,0.59c0,0.16-0.03,0.4-0.08,0.72s-0.11,0.66-0.18,1.02c-0.02,0.1-0.07,0.39-0.16,0.86
		s-0.16,0.92-0.21,1.36c-0.12,0.97-0.23,1.95-0.33,2.94s-0.15,1.74-0.15,2.24c0,0.23-0.09,0.43-0.28,0.6
		c-0.19,0.16-0.43,0.25-0.73,0.25C223.76,121.42,223.55,121.36,223.38,121.22z M224.82,109.01c-0.14-0.14-0.22-0.35-0.22-0.65
		c0-0.11,0.01-0.22,0.03-0.35c0.06-0.4,0.19-0.71,0.38-0.92c0.2-0.21,0.46-0.31,0.79-0.31c0.3,0,0.54,0.06,0.72,0.18
		s0.25,0.27,0.22,0.46c-0.02,0.11-0.04,0.2-0.07,0.25s-0.05,0.09-0.05,0.11c-0.05,0.08-0.09,0.17-0.11,0.26
		c-0.01,0.05-0.02,0.16-0.04,0.31l-0.03,0.31c-0.03,0.19-0.12,0.33-0.28,0.42c-0.16,0.09-0.39,0.14-0.7,0.14
		C225.18,109.21,224.96,109.15,224.82,109.01z"/>
	<path d="M229.84,121.03c-0.53-0.32-0.95-0.78-1.24-1.38s-0.44-1.3-0.44-2.1c0-1.04,0.21-2.1,0.62-3.17s0.98-1.96,1.71-2.67
		c0.73-0.71,1.55-1.06,2.45-1.06c0.66,0,1.25,0.21,1.78,0.64s0.94,1.04,1.24,1.85s0.45,1.76,0.45,2.87c0,1.08-0.21,2.03-0.62,2.87
		s-0.97,1.48-1.69,1.95c-0.72,0.46-1.52,0.69-2.41,0.69C230.99,121.51,230.38,121.35,229.84,121.03z M234.52,113.71
		c-0.16-0.54-0.39-0.96-0.69-1.25c-0.3-0.29-0.64-0.43-1.04-0.43c-0.59,0-1.11,0.29-1.55,0.88s-0.78,1.32-1.01,2.19
		s-0.34,1.72-0.34,2.53c0,0.85,0.13,1.49,0.4,1.93s0.7,0.65,1.29,0.65c0.59,0,1.12-0.19,1.6-0.57c0.48-0.38,0.87-0.91,1.15-1.61
		s0.42-1.5,0.42-2.4C234.76,114.9,234.68,114.25,234.52,113.71z"/>
	<path d="M239.79,121.14c-0.6-0.25-1.08-0.57-1.44-0.96c-0.36-0.39-0.54-0.79-0.54-1.19c0-0.25,0.07-0.45,0.21-0.6
		s0.32-0.23,0.54-0.23c0.22,0,0.42,0.08,0.61,0.24s0.38,0.37,0.56,0.62c0.21,0.29,0.41,0.5,0.62,0.65c0.21,0.14,0.43,0.24,0.66,0.28
		s0.53,0.07,0.88,0.07c0.38,0,0.74-0.07,1.06-0.2s0.59-0.33,0.79-0.58c0.2-0.25,0.29-0.54,0.29-0.87c0-0.29-0.09-0.54-0.28-0.76
		c-0.19-0.21-0.43-0.4-0.74-0.55s-0.71-0.33-1.21-0.51c-0.86-0.32-1.55-0.69-2.07-1.12c-0.52-0.43-0.78-1-0.78-1.71
		c0-0.59,0.16-1.11,0.48-1.58c0.32-0.47,0.76-0.84,1.32-1.11c0.56-0.27,1.18-0.4,1.88-0.4c0.57,0,1.11,0.09,1.63,0.26
		s0.93,0.4,1.24,0.68s0.47,0.58,0.47,0.89c0,0.25-0.08,0.45-0.24,0.61s-0.36,0.24-0.61,0.24c-0.28,0-0.59-0.17-0.94-0.5
		c-0.24-0.23-0.49-0.41-0.75-0.54c-0.26-0.13-0.59-0.2-0.98-0.2c-0.38,0-0.71,0.06-1,0.18s-0.52,0.28-0.69,0.49
		s-0.25,0.44-0.25,0.71c0,0.34,0.18,0.63,0.55,0.88s0.87,0.5,1.52,0.76c0.67,0.27,1.22,0.53,1.65,0.77s0.78,0.56,1.05,0.94
		s0.42,0.84,0.42,1.39c0,0.6-0.17,1.15-0.52,1.66s-0.83,0.91-1.44,1.21s-1.29,0.45-2.03,0.45
		C241.03,121.51,240.39,121.39,239.79,121.14z"/>
	<path d="M249.23,121.03c-0.53-0.32-0.95-0.78-1.24-1.38s-0.44-1.3-0.44-2.1c0-1.04,0.21-2.1,0.62-3.17s0.98-1.96,1.71-2.67
		c0.73-0.71,1.55-1.06,2.45-1.06c0.66,0,1.25,0.21,1.78,0.64s0.94,1.04,1.24,1.85s0.45,1.76,0.45,2.87c0,1.08-0.21,2.03-0.62,2.87
		s-0.97,1.48-1.69,1.95c-0.72,0.46-1.52,0.69-2.41,0.69C250.38,121.51,249.77,121.35,249.23,121.03z M253.9,113.71
		c-0.16-0.54-0.39-0.96-0.69-1.25c-0.3-0.29-0.64-0.43-1.04-0.43c-0.59,0-1.11,0.29-1.55,0.88s-0.78,1.32-1.01,2.19
		s-0.34,1.72-0.34,2.53c0,0.85,0.13,1.49,0.4,1.93s0.7,0.65,1.29,0.65c0.59,0,1.12-0.19,1.6-0.57c0.48-0.38,0.87-0.91,1.15-1.61
		s0.42-1.5,0.42-2.4C254.15,114.9,254.06,114.25,253.9,113.71z"/>
	<path d="M259.18,121.14c-0.6-0.25-1.08-0.57-1.44-0.96c-0.36-0.39-0.54-0.79-0.54-1.19c0-0.25,0.07-0.45,0.21-0.6
		s0.32-0.23,0.54-0.23c0.22,0,0.42,0.08,0.61,0.24s0.38,0.37,0.56,0.62c0.21,0.29,0.41,0.5,0.62,0.65c0.21,0.14,0.43,0.24,0.66,0.28
		s0.53,0.07,0.88,0.07c0.38,0,0.74-0.07,1.06-0.2s0.59-0.33,0.79-0.58c0.2-0.25,0.29-0.54,0.29-0.87c0-0.29-0.09-0.54-0.28-0.76
		c-0.19-0.21-0.43-0.4-0.74-0.55s-0.71-0.33-1.21-0.51c-0.86-0.32-1.55-0.69-2.07-1.12c-0.52-0.43-0.78-1-0.78-1.71
		c0-0.59,0.16-1.11,0.48-1.58c0.32-0.47,0.76-0.84,1.32-1.11c0.56-0.27,1.18-0.4,1.88-0.4c0.57,0,1.11,0.09,1.63,0.26
		s0.93,0.4,1.24,0.68s0.47,0.58,0.47,0.89c0,0.25-0.08,0.45-0.24,0.61s-0.36,0.24-0.61,0.24c-0.28,0-0.59-0.17-0.94-0.5
		c-0.24-0.23-0.49-0.41-0.75-0.54c-0.26-0.13-0.59-0.2-0.98-0.2c-0.38,0-0.71,0.06-1,0.18s-0.52,0.28-0.69,0.49
		s-0.25,0.44-0.25,0.71c0,0.34,0.18,0.63,0.55,0.88s0.87,0.5,1.52,0.76c0.67,0.27,1.22,0.53,1.65,0.77s0.78,0.56,1.05,0.94
		s0.42,0.84,0.42,1.39c0,0.6-0.17,1.15-0.52,1.66s-0.83,0.91-1.44,1.21s-1.29,0.45-2.03,0.45
		C260.42,121.51,259.78,121.39,259.18,121.14z"/>
</g>
</svg>
